<mxfile host="app.diagrams.net" modified="2024-07-22T02:52:16.645Z" agent="Mozilla/5.0 (Windows NT 10.0; Win64; x64) AppleWebKit/537.36 (KHTML, like Gecko) Chrome/126.0.0.0 Safari/537.36" version="24.7.1" etag="SCkqQp7WZAOPd1sitS6D" type="github">
  <diagram name="第 1 页" id="iiGCV08o8_GPjd6Ab1gx">
    <mxGraphModel>
      <root>
        <mxCell id="0" />
        <mxCell id="1" parent="0" />
      </root>
    </mxGraphModel>
  </diagram>
</mxfile>
